<?xml version="1.0" encoding="UTF-8"?>
<svg width="25px" height="25px" viewBox="0 0 25 25" version="1.1" xmlns="http://www.w3.org/2000/svg" xmlns:xlink="http://www.w3.org/1999/xlink">
    <!-- Generator: Sketch 56.2 (81672) - https://sketch.com -->
    <title>content-writing</title>
    <desc>Created with Sketch.</desc>
    <defs>
        <linearGradient x1="151.179688%" y1="113.5625%" x2="13.7324219%" y2="10.109375%" id="linearGradient-1">
            <stop stop-color="#AB3EFF" offset="0%"></stop>
            <stop stop-color="#002FFF" offset="100%"></stop>
        </linearGradient>
        <circle id="path-2" cx="12.5" cy="12.5" r="12.5"></circle>
        <filter x="-4.0%" y="-4.0%" width="108.0%" height="108.0%" filterUnits="objectBoundingBox" id="filter-3">
            <feGaussianBlur stdDeviation="1" in="SourceAlpha" result="shadowBlurInner1"></feGaussianBlur>
            <feOffset dx="0" dy="0" in="shadowBlurInner1" result="shadowOffsetInner1"></feOffset>
            <feComposite in="shadowOffsetInner1" in2="SourceAlpha" operator="arithmetic" k2="-1" k3="1" result="shadowInnerInner1"></feComposite>
            <feColorMatrix values="0 0 0 0 0   0 0 0 0 0   0 0 0 0 0  0 0 0 0.313920455 0" type="matrix" in="shadowInnerInner1"></feColorMatrix>
        </filter>
    </defs>
    <g id="Home1" stroke="none" stroke-width="1" fill="none" fill-rule="evenodd">
        <g id="Home-" transform="translate(-51.000000, -766.000000)">
            <g id="Group-2" transform="translate(51.000000, 46.000000)">
                <g id="Group-4">
                    <g id="logo1-copy-5" transform="translate(0.000000, 56.000000)">
                        <g id="content-writing" transform="translate(0.000000, 664.000000)">
                            <g id="Oval">
                                <use fill="url(#linearGradient-1)" fill-rule="evenodd" xlink:href="#path-2"></use>
                                <use fill="black" fill-opacity="1" filter="url(#filter-3)" xlink:href="#path-2"></use>
                            </g>
                            <g id="Shape-Copy-3" transform="translate(3.000000, 4.000000)" fill-rule="nonzero">
                                <path d="M17,13.1923077 C17,13.5392929 16.7604515,13.8205128 16.4648829,13.8205128 L10.1505017,13.8205128 C9.85493311,13.8205128 9.61538462,13.5392929 9.61538462,13.1923077 C9.61538462,12.8453225 9.85493311,12.5641026 10.1505017,12.5641026 L16.4648829,12.5641026 C16.7604515,12.5641026 17,12.8453225 17,13.1923077 Z" id="Path" fill="#FFFFFF"></path>
                                <path d="M16.5010362,10.0512821 L12.5758869,10.0512821 C12.3002873,10.0512821 12.0769231,10.3326247 12.0769231,10.6794872 C12.0769231,11.0264724 12.3002873,11.3076923 12.5758869,11.3076923 L16.5010362,11.3076923 C16.7766357,11.3076923 17,11.0264724 17,10.6794872 C17,10.3326247 16.7766357,10.0512821 16.5010362,10.0512821 Z" id="Path" fill="#FFFFFF"></path>
                                <path d="M16.5851385,7.53846154 L14.953323,7.53846154 C14.7241769,7.53846154 14.5384615,7.81968149 14.5384615,8.16666667 C14.5384615,8.51365184 14.7241769,8.79487179 14.953323,8.79487179 L16.5851385,8.79487179 C16.8142847,8.79487179 17,8.51365184 17,8.16666667 C17,7.81968149 16.8142847,7.53846154 16.5851385,7.53846154 Z" id="Path" fill="#FFFFFF"></path>
                                <g id="Group-7" transform="translate(0.992966, 0.311693)" stroke="#FFFFFF" stroke-width="1.3">
                                    <path d="M12.9170068,4.70065757 L4.62278539,12.9948255 C4.53492294,13.082779 4.41571762,13.1319924 4.29135437,13.1319924 L1.52495921,13.1303185 C1.26597597,13.1301618 1.05595312,12.9201374 1.05579821,12.661154 L1.0541759,9.89475754 C1.0541759,9.77039423 1.10335847,9.65118919 1.19131256,9.5633273 L9.48553393,1.26915935 C9.66848926,1.08611356 9.96538587,1.08629321 10.1485603,1.26956052 L12.9166102,4.03763087 C13.0998761,4.22080666 13.1000537,4.51770342 12.9170068,4.70065757 Z" id="Path" transform="translate(7.054176, 7.131992) rotate(-4.000000) translate(-7.054176, -7.131992) "></path>
                                </g>
                            </g>
                        </g>
                    </g>
                </g>
            </g>
        </g>
    </g>
</svg>